<?xml version="1.0" encoding="UTF-8"?>
<svg width="74px" height="68px" viewBox="0 0 74 68" version="1.1" xmlns="http://www.w3.org/2000/svg" xmlns:xlink="http://www.w3.org/1999/xlink">
    <!-- Generator: Sketch 55.2 (78181) - https://sketchapp.com -->
    <title>mobile app design</title>
    <desc>Created with Sketch.</desc>
    <g id="Page-1" stroke="none" stroke-width="1" fill="none" fill-rule="evenodd">
        <g id="Interfaces-v1.1" transform="translate(-185.000000, -2188.000000)" fill="#1A976F" fill-rule="nonzero">
            <g id="mobile-app-design" transform="translate(185.000000, 2188.000000)">
                <path d="M22.2,64.1997163 L22.2,34.569078 C22.2,32.5235094 20.5434535,30.8652482 18.5,30.8652482 L3.7,30.8652482 C1.65654642,30.8652482 0,32.5235094 0,34.569078 L0,64.1997163 C0,66.245285 1.65654642,67.9035461 3.7,67.9035461 L18.5,67.9035461 C20.5434535,67.9035461 22.2,66.245285 22.2,64.1997163 Z M2.46666667,40.7421277 L19.7333333,40.7421277 L19.7333333,58.0266667 L2.46666667,58.0266667 L2.46666667,40.7421277 Z M3.7,33.3344681 L18.5,33.3344681 C19.1811511,33.3344681 19.7333333,33.8872218 19.7333333,34.569078 L19.7333333,38.2729078 L2.46666667,38.2729078 L2.46666667,34.569078 C2.46666667,33.8872218 3.01884881,33.3344681 3.7,33.3344681 Z M2.46666667,64.1997163 L2.46666667,60.4958865 L19.7333333,60.4958865 L19.7333333,64.1997163 C19.7333333,64.8815725 19.1811511,65.4343262 18.5,65.4343262 L3.7,65.4343262 C3.01884881,65.4343262 2.46666667,64.8815725 2.46666667,64.1997163 Z" id="Shape"></path>
                <path d="M70.3,0 L28.3666667,0 C26.3232132,0 24.6666667,1.65826108 24.6666667,3.70382979 L24.6666667,34.569078 C24.6666667,36.6146467 26.3232132,38.2729078 28.3666667,38.2729078 L44.3284667,38.2729078 C44.209638,40.0743018 43.5902276,41.8065974 42.5401333,43.2743126 C40.6703879,43.622906 39.3691924,45.3336982 39.5310113,47.2306606 C39.6928302,49.1276231 41.2649493,50.5928016 43.1666667,50.6190071 L55.5,50.6190071 C57.401929,50.5933903 58.9745997,49.1283993 59.1367522,47.2312608 C59.2989047,45.3341222 57.9977044,43.6229866 56.1277667,43.2743126 C55.0765874,41.8070703 54.4566779,40.0745738 54.3382,38.2729078 L70.3,38.2729078 C72.3434535,38.2729078 74,36.6146467 74,34.569078 L74,3.70382979 C74,1.65826108 72.3434535,0 70.3,0 Z M28.3666667,2.46921986 L70.3,2.46921986 C70.9811511,2.46921986 71.5333333,3.02197355 71.5333333,3.70382979 L71.5333333,28.3960284 L27.1333333,28.3960284 L27.1333333,3.70382979 C27.1333333,3.02197355 27.6855155,2.46921986 28.3666667,2.46921986 Z M55.5,48.1497872 L43.1666667,48.1497872 C42.4855155,48.1497872 41.9333333,47.5970335 41.9333333,46.9151773 C41.9333333,46.2333211 42.4855155,45.6805674 43.1666667,45.6805674 L55.5,45.6805674 C56.1811511,45.6805674 56.7333333,46.2333211 56.7333333,46.9151773 C56.7333333,47.5970335 56.1811511,48.1497872 55.5,48.1497872 Z M53.1986,43.2113475 L45.4680667,43.2113475 C46.2366745,41.6695079 46.6955129,39.9916508 46.8185667,38.2729078 L51.8481,38.2729078 C51.9711537,39.9916508 52.4299922,41.6695079 53.1986,43.2113475 Z M70.3,35.8036879 L28.3666667,35.8036879 C27.6855155,35.8036879 27.1333333,35.2509342 27.1333333,34.569078 L27.1333333,30.8652482 L71.5333333,30.8652482 L71.5333333,34.569078 C71.5333333,35.2509342 70.9811511,35.8036879 70.3,35.8036879 Z" id="Shape"></path>
                <ellipse id="Oval" cx="49.3333333" cy="33.3344681" rx="1.23333333" ry="1.23460993"></ellipse>
                <path d="M9.86666667,37.0382979 L12.3333333,37.0382979 C13.0144845,37.0382979 13.5666667,36.4855441 13.5666667,35.8036879 C13.5666667,35.1218318 13.0144845,34.569078 12.3333333,34.569078 L9.86666667,34.569078 C9.18551548,34.569078 8.63333333,35.1218318 8.63333333,35.8036879 C8.63333333,36.4855441 9.18551548,37.0382979 9.86666667,37.0382979 Z" id="Shape"></path>
                <ellipse id="Oval" cx="11.1" cy="62.9651064" rx="1.23333333" ry="1.23460993"></ellipse>
                <path d="M15.1613667,43.5730882 L7.4,51.3424885 L7.4,46.9151773 C7.4,46.2333211 6.84781786,45.6805674 6.16666667,45.6805674 C5.48551548,45.6805674 4.93333333,46.2333211 4.93333333,46.9151773 L4.93333333,54.3228369 C4.9341057,54.4847244 4.96636151,54.6449124 5.0283,54.7944579 C5.15347212,55.0968346 5.39346933,55.3370802 5.69553333,55.4623818 C5.84492418,55.5243844 6.00494652,55.5566737 6.16666667,55.5574468 L13.5666667,55.5574468 C14.2478178,55.5574468 14.8,55.0046931 14.8,54.3228369 C14.8,53.6409807 14.2478178,53.088227 13.5666667,53.088227 L9.14393333,53.088227 L16.9053,45.3188267 C17.372699,44.8343918 17.3660146,44.0643583 16.8902763,43.5881275 C16.4145379,43.1118967 15.6453006,43.1052054 15.1613667,43.5730882 Z" id="Shape"></path>
                <path d="M57.9666667,17.284539 C58.2937403,17.284539 58.6073923,17.1543486 58.8386333,16.9227983 L66.6,9.15339801 L66.6,13.5807092 C66.6,14.2625654 67.1521822,14.8153191 67.8333333,14.8153191 C68.5144845,14.8153191 69.0666667,14.2625654 69.0666667,13.5807092 L69.0666667,6.17304965 C69.0660869,5.67388663 68.7652977,5.22418474 68.3044667,5.03350468 C68.1550758,4.97150208 67.9950534,4.93921288 67.8333333,4.93843972 L60.4333333,4.93843972 C59.7521822,4.93843972 59.2,5.49119341 59.2,6.17304965 C59.2,6.85490588 59.7521822,7.40765957 60.4333333,7.40765957 L64.8560667,7.40765957 L57.0947,15.1770599 C56.7420803,15.5301513 56.636613,16.0610858 56.8274638,16.5223582 C57.0183146,16.9836306 57.4679117,17.284539 57.9666667,17.284539 Z" id="Shape"></path>
                <path d="M1.23333333,6.17304965 C1.91448453,6.17304965 2.46666667,5.62029595 2.46666667,4.93843972 L2.46666667,2.46921986 L4.93333333,2.46921986 C5.61448453,2.46921986 6.16666667,1.91646617 6.16666667,1.23460993 C6.16666667,0.552753693 5.61448453,0 4.93333333,0 L1.23333333,0 C0.552182142,0 0,0.552753693 0,1.23460993 L0,4.93843972 C0,5.62029595 0.552182142,6.17304965 1.23333333,6.17304965 Z" id="Shape"></path>
                <path d="M72.7666667,61.7304965 C72.0855155,61.7304965 71.5333333,62.2832502 71.5333333,62.9651064 L71.5333333,65.4343262 L69.0666667,65.4343262 C68.3855155,65.4343262 67.8333333,65.98708 67.8333333,66.6689362 C67.8333333,67.3507923 68.3855155,67.9035461 69.0666667,67.9035461 L72.7666667,67.9035461 C73.4478178,67.9035461 74,67.3507923 74,66.6689362 L74,62.9651064 C74,62.2832502 73.4478178,61.7304965 72.7666667,61.7304965 Z" id="Shape"></path>
                <path d="M1.23333333,13.5807092 C1.91448453,13.5807092 2.46666667,13.0279555 2.46666667,12.3460993 L2.46666667,9.87687943 C2.46666667,9.1950232 1.91448453,8.6422695 1.23333333,8.6422695 C0.552182142,8.6422695 0,9.1950232 0,9.87687943 L0,12.3460993 C0,13.0279555 0.552182142,13.5807092 1.23333333,13.5807092 Z" id="Shape"></path>
                <path d="M1.23333333,20.9883688 C1.91448453,20.9883688 2.46666667,20.435615 2.46666667,19.7537589 L2.46666667,17.284539 C2.46666667,16.6026828 1.91448453,16.0499291 1.23333333,16.0499291 C0.552182142,16.0499291 0,16.6026828 0,17.284539 L0,19.7537589 C0,20.435615 0.552182142,20.9883688 1.23333333,20.9883688 Z" id="Shape"></path>
                <path d="M1.23333333,28.3960284 C1.91448453,28.3960284 2.46666667,27.8432746 2.46666667,27.1614184 L2.46666667,24.6921986 C2.46666667,24.0103424 1.91448453,23.4575887 1.23333333,23.4575887 C0.552182142,23.4575887 0,24.0103424 0,24.6921986 L0,27.1614184 C0,27.8432746 0.552182142,28.3960284 1.23333333,28.3960284 Z" id="Shape"></path>
                <path d="M12.3333333,2.46921986 C13.0144845,2.46921986 13.5666667,1.91646617 13.5666667,1.23460993 C13.5666667,0.552753693 13.0144845,0 12.3333333,0 L9.86666667,0 C9.18551548,0 8.63333333,0.552753693 8.63333333,1.23460993 C8.63333333,1.91646617 9.18551548,2.46921986 9.86666667,2.46921986 L12.3333333,2.46921986 Z" id="Shape"></path>
                <path d="M19.7333333,2.46921986 C20.4144845,2.46921986 20.9666667,1.91646617 20.9666667,1.23460993 C20.9666667,0.552753693 20.4144845,0 19.7333333,0 L17.2666667,0 C16.5855155,0 16.0333333,0.552753693 16.0333333,1.23460993 C16.0333333,1.91646617 16.5855155,2.46921986 17.2666667,2.46921986 L19.7333333,2.46921986 Z" id="Shape"></path>
                <path d="M64.1333333,65.4343262 L61.6666667,65.4343262 C60.9855155,65.4343262 60.4333333,65.98708 60.4333333,66.6689362 C60.4333333,67.3507923 60.9855155,67.9035461 61.6666667,67.9035461 L64.1333333,67.9035461 C64.8144845,67.9035461 65.3666667,67.3507923 65.3666667,66.6689362 C65.3666667,65.98708 64.8144845,65.4343262 64.1333333,65.4343262 Z" id="Shape"></path>
                <path d="M56.7333333,67.9035461 C57.4144845,67.9035461 57.9666667,67.3507923 57.9666667,66.6689362 C57.9666667,65.98708 57.4144845,65.4343262 56.7333333,65.4343262 L54.2666667,65.4343262 C53.5855155,65.4343262 53.0333333,65.98708 53.0333333,66.6689362 C53.0333333,67.3507923 53.5855155,67.9035461 54.2666667,67.9035461 L56.7333333,67.9035461 Z" id="Shape"></path>
                <path d="M49.3333333,67.9035461 C50.0144845,67.9035461 50.5666667,67.3507923 50.5666667,66.6689362 C50.5666667,65.98708 50.0144845,65.4343262 49.3333333,65.4343262 L46.8666667,65.4343262 C46.1855155,65.4343262 45.6333333,65.98708 45.6333333,66.6689362 C45.6333333,67.3507923 46.1855155,67.9035461 46.8666667,67.9035461 L49.3333333,67.9035461 Z" id="Shape"></path>
                <path d="M41.9333333,67.9035461 C42.6144845,67.9035461 43.1666667,67.3507923 43.1666667,66.6689362 C43.1666667,65.98708 42.6144845,65.4343262 41.9333333,65.4343262 L39.4666667,65.4343262 C38.7855155,65.4343262 38.2333333,65.98708 38.2333333,66.6689362 C38.2333333,67.3507923 38.7855155,67.9035461 39.4666667,67.9035461 L41.9333333,67.9035461 Z" id="Shape"></path>
                <path d="M34.5333333,67.9035461 C35.2144845,67.9035461 35.7666667,67.3507923 35.7666667,66.6689362 C35.7666667,65.98708 35.2144845,65.4343262 34.5333333,65.4343262 L32.0666667,65.4343262 C31.3855155,65.4343262 30.8333333,65.98708 30.8333333,66.6689362 C30.8333333,67.3507923 31.3855155,67.9035461 32.0666667,67.9035461 L34.5333333,67.9035461 Z" id="Shape"></path>
                <path d="M27.1333333,67.9035461 C27.8144845,67.9035461 28.3666667,67.3507923 28.3666667,66.6689362 C28.3666667,65.98708 27.8144845,65.4343262 27.1333333,65.4343262 L24.6666667,65.4343262 C23.9855155,65.4343262 23.4333333,65.98708 23.4333333,66.6689362 C23.4333333,67.3507923 23.9855155,67.9035461 24.6666667,67.9035461 L27.1333333,67.9035461 Z" id="Shape"></path>
                <path d="M72.7666667,54.3228369 C72.0855155,54.3228369 71.5333333,54.8755906 71.5333333,55.5574468 L71.5333333,58.0266667 C71.5333333,58.7085228 72.0855155,59.2612766 72.7666667,59.2612766 C73.4478178,59.2612766 74,58.7085228 74,58.0266667 L74,55.5574468 C74,54.8755906 73.4478178,54.3228369 72.7666667,54.3228369 Z" id="Shape"></path>
                <path d="M72.7666667,46.9151773 C72.0855155,46.9151773 71.5333333,47.4679311 71.5333333,48.1497872 L71.5333333,50.6190071 C71.5333333,51.3008633 72.0855155,51.853617 72.7666667,51.853617 C73.4478178,51.853617 74,51.3008633 74,50.6190071 L74,48.1497872 C74,47.4679311 73.4478178,46.9151773 72.7666667,46.9151773 Z" id="Shape"></path>
                <path d="M72.7666667,39.5075177 C72.0855155,39.5075177 71.5333333,40.0602715 71.5333333,40.7421277 L71.5333333,43.2113475 C71.5333333,43.8932037 72.0855155,44.4459574 72.7666667,44.4459574 C73.4478178,44.4459574 74,43.8932037 74,43.2113475 L74,40.7421277 C74,40.0602715 73.4478178,39.5075177 72.7666667,39.5075177 Z" id="Shape"></path>
                <path d="M30.8333333,7.40765957 L32.0666667,7.40765957 C32.7478178,7.40765957 33.3,6.85490588 33.3,6.17304965 C33.3,5.49119341 32.7478178,4.93843972 32.0666667,4.93843972 L30.8333333,4.93843972 C30.1521822,4.93843972 29.6,5.49119341 29.6,6.17304965 C29.6,6.85490588 30.1521822,7.40765957 30.8333333,7.40765957 Z" id="Shape"></path>
                <path d="M37,7.40765957 L46.8666667,7.40765957 C47.5478178,7.40765957 48.1,6.85490588 48.1,6.17304965 C48.1,5.49119341 47.5478178,4.93843972 46.8666667,4.93843972 L37,4.93843972 C36.3188489,4.93843972 35.7666667,5.49119341 35.7666667,6.17304965 C35.7666667,6.85490588 36.3188489,7.40765957 37,7.40765957 Z" id="Shape"></path>
            </g>
        </g>
    </g>
</svg>