<?xml version="1.0" encoding="UTF-8"?>
<svg width="59px" height="48px" viewBox="0 0 59 48" version="1.1" xmlns="http://www.w3.org/2000/svg" xmlns:xlink="http://www.w3.org/1999/xlink">
    <!-- Generator: Sketch 55.2 (78181) - https://sketchapp.com -->
    <title>webflow-development</title>
    <desc>Created with Sketch.</desc>
    <g id="Page-1" stroke="none" stroke-width="1" fill="none" fill-rule="evenodd">
        <g id="Interface-price-page" transform="translate(-1073.000000, -1473.000000)" fill="#1A976F" fill-rule="nonzero">
            <g id="Group-5" transform="translate(1049.000000, 1444.000000)">
                <g id="webflow-development" transform="translate(24.000000, 29.000000)">
                    <path d="M57.7959184,0.0483564356 L1.20408163,0.0483564356 C0.539067347,0.0483564356 0,0.58039604 0,1.23647525 L0,46.7635248 C0,47.4197228 0.539067347,47.9516436 1.20408163,47.9516436 L57.7959184,47.9516436 C58.4608122,47.9516436 59,47.4197228 59,46.7635248 L59,1.23647525 C59,0.58039604 58.4608122,0.0483564356 57.7959184,0.0483564356 Z M56.5918367,2.42459406 L56.5918367,9.5800396 L2.40816327,9.5800396 L2.40816327,2.42459406 L56.5918367,2.42459406 Z M2.40816327,45.5754059 L2.40816327,11.9562772 L56.5918367,11.9562772 L56.5918367,45.5754059 L2.40816327,45.5754059 Z" id="Shape"></path>
                    <path d="M18.7935469,17.9341782 L9.16510816,17.9341782 C8.50021429,17.9341782 7.96102653,18.466099 7.96102653,19.122297 L7.96102653,28.7455842 C7.96102653,29.4016634 8.50021429,29.933703 9.16510816,29.933703 L18.7935469,29.933703 C19.4585612,29.933703 19.9976286,29.4016634 19.9976286,28.7455842 L19.9976286,19.122297 C19.9976286,18.466099 19.4585612,17.9341782 18.7935469,17.9341782 Z M17.5894653,27.5574653 L10.3691898,27.5574653 L10.3691898,20.3104158 L17.5894653,20.3104158 L17.5894653,27.5574653 Z" id="Shape"></path>
                    <path d="M24.5975816,29.933703 L34.2255388,29.933703 C34.8904327,29.933703 35.4296204,29.4016634 35.4296204,28.7455842 L35.4296204,19.122297 C35.4296204,18.466099 34.8904327,17.9341782 34.2255388,17.9341782 L24.5975816,17.9341782 C23.9326878,17.9341782 23.3935,18.466099 23.3935,19.122297 L23.3935,28.7455842 C23.3935,29.4017822 23.9326878,29.933703 24.5975816,29.933703 Z M25.8016633,20.3104158 L33.0214571,20.3104158 L33.0214571,27.5574653 L25.8016633,27.5574653 L25.8016633,20.3104158 L25.8016633,20.3104158 Z" id="Shape"></path>
                    <path d="M40.0302959,29.933703 L49.6587347,29.933703 C50.323749,29.933703 50.8628163,29.4016634 50.8628163,28.7455842 L50.8628163,19.122297 C50.8628163,18.466099 50.323749,17.9341782 49.6587347,17.9341782 L40.0302959,17.9341782 C39.3652816,17.9341782 38.8262143,18.466099 38.8262143,19.122297 L38.8262143,28.7455842 C38.8262143,29.4017822 39.365402,29.933703 40.0302959,29.933703 Z M41.2343776,20.3104158 L48.4546531,20.3104158 L48.4546531,27.5574653 L41.2343776,27.5574653 L41.2343776,20.3104158 L41.2343776,20.3104158 Z" id="Shape"></path>
                    <path d="M18.7935469,32.9485545 L9.16510816,32.9485545 C8.50021429,32.9485545 7.96102653,33.4804752 7.96102653,34.1366733 C7.96102653,34.7928713 8.50021429,35.3247921 9.16510816,35.3247921 L18.7935469,35.3247921 C19.4585612,35.3247921 19.9976286,34.7928713 19.9976286,34.1366733 C19.9976286,33.4805941 19.4585612,32.9485545 18.7935469,32.9485545 Z" id="Path"></path>
                    <path d="M18.7935469,37.3445941 L9.16510816,37.3445941 C8.50021429,37.3445941 7.96102653,37.8765149 7.96102653,38.5327129 C7.96102653,39.1889109 8.50021429,39.7208317 9.16510816,39.7208317 L18.7935469,39.7208317 C19.4585612,39.7208317 19.9976286,39.1889109 19.9976286,38.5327129 C19.9976286,37.8766337 19.4585612,37.3445941 18.7935469,37.3445941 Z" id="Path"></path>
                    <path d="M34.3141592,32.9485545 L24.6860816,32.9485545 C24.0211878,32.9485545 23.482,33.4804752 23.482,34.1366733 C23.482,34.7928713 24.0211878,35.3247921 24.6860816,35.3247921 L34.3142796,35.3247921 C34.9792939,35.3247921 35.5183612,34.7928713 35.5183612,34.1366733 C35.5182408,33.4805941 34.9791735,32.9485545 34.3141592,32.9485545 Z" id="Path"></path>
                    <path d="M34.3141592,37.3445941 L24.6860816,37.3445941 C24.0211878,37.3445941 23.482,37.8765149 23.482,38.5327129 C23.482,39.1889109 24.0211878,39.7208317 24.6860816,39.7208317 L34.3142796,39.7208317 C34.9792939,39.7208317 35.5183612,39.1889109 35.5183612,38.5327129 C35.5182408,37.8766337 34.9791735,37.3445941 34.3141592,37.3445941 Z" id="Path"></path>
                    <path d="M49.8348918,32.9485545 L40.2064531,32.9485545 C39.5415592,32.9485545 39.0023714,33.4804752 39.0023714,34.1366733 C39.0023714,34.7928713 39.5415592,35.3247921 40.2064531,35.3247921 L49.8348918,35.3247921 C50.4997857,35.3247921 51.0389735,34.7928713 51.0389735,34.1366733 C51.0389735,33.4805941 50.4997857,32.9485545 49.8348918,32.9485545 Z" id="Path"></path>
                    <path d="M49.8348918,37.3445941 L40.2064531,37.3445941 C39.5415592,37.3445941 39.0023714,37.8765149 39.0023714,38.5327129 C39.0023714,39.1889109 39.5415592,39.7208317 40.2064531,39.7208317 L49.8348918,39.7208317 C50.4997857,39.7208317 51.0389735,39.1889109 51.0389735,38.5327129 C51.0389735,37.8766337 50.4997857,37.3445941 49.8348918,37.3445941 Z" id="Path"></path>
                    <path d="M9.16510816,7.16423762 L9.75968367,7.16423762 C10.4245776,7.16423762 10.9637653,6.63219802 10.9637653,5.97611881 C10.9637653,5.3200396 10.4245776,4.788 9.75968367,4.788 L9.16510816,4.788 C8.50021429,4.788 7.96102653,5.3200396 7.96102653,5.97611881 C7.96102653,6.63219802 8.50021429,7.16423762 9.16510816,7.16423762 Z" id="Path"></path>
                    <path d="M14.1580735,7.16423762 L14.7522878,7.16423762 C15.4171816,7.16423762 15.9563694,6.63219802 15.9563694,5.97611881 C15.9563694,5.3200396 15.417302,4.788 14.7522878,4.788 L14.1580735,4.788 C13.4931796,4.788 12.9539918,5.3200396 12.9539918,5.97611881 C12.9539918,6.63219802 13.4931796,7.16423762 14.1580735,7.16423762 Z" id="Path"></path>
                    <path d="M19.150798,7.16423762 L19.744651,7.16423762 C20.4095449,7.16423762 20.9487327,6.63219802 20.9487327,5.97611881 C20.9487327,5.3200396 20.4095449,4.788 19.744651,4.788 L19.150798,4.788 C18.4859041,4.788 17.9467163,5.3200396 17.9467163,5.97611881 C17.9467163,6.63219802 18.4857837,7.16423762 19.150798,7.16423762 Z" id="Path"></path>
                </g>
            </g>
        </g>
    </g>
</svg>