<?xml version="1.0" encoding="UTF-8"?>
<svg width="81px" height="81px" viewBox="0 0 81 81" version="1.1" xmlns="http://www.w3.org/2000/svg" xmlns:xlink="http://www.w3.org/1999/xlink">
    <!-- Generator: Sketch 55.2 (78181) - https://sketchapp.com -->
    <title>web design copy</title>
    <desc>Created with Sketch.</desc>
    <g id="Page-1" stroke="none" stroke-width="1" fill="none" fill-rule="evenodd">
        <g id="Interfaces-v1.1" transform="translate(-185.000000, -1576.000000)" fill="#1A976F" fill-rule="nonzero">
            <g id="web-design-copy" transform="translate(185.000000, 1576.000000)">
                <path d="M76.95,0 L39.15,0 C36.9132468,0 35.1,1.81324676 35.1,4.05 L35.1,16.2 L5.4,16.2 C2.41766235,16.2 0,18.6176623 0,21.6 L0,62.1 C0,65.0823376 2.41766235,67.5 5.4,67.5 L24.4728,67.5 L22.01985,73.0188 C20.0404399,73.5086046 18.7338612,75.393647 18.9699069,77.4190494 C19.2059527,79.444452 20.9110024,80.9785112 22.95,81 L44.55,81 C46.5889976,80.9785112 48.2940473,79.444452 48.5300931,77.4190494 C48.7661388,75.393647 47.4595601,73.5086046 45.48015,73.0188 L43.0272,67.5 L62.1,67.5 C65.0823376,67.5 67.5,65.0823376 67.5,62.1 L67.5,52.65 L76.95,52.65 C79.1867532,52.65 81,50.8367532 81,48.6 L81,4.05 C81,1.81324676 79.1867532,0 76.95,0 Z M39.15,2.7 L76.95,2.7 C77.6955843,2.7 78.3,3.30441559 78.3,4.05 L78.3,10.8 L37.8,10.8 L37.8,4.05 C37.8,3.30441559 38.4044157,2.7 39.15,2.7 Z M44.55,78.3 L22.95,78.3 C22.2044157,78.3 21.6,77.6955843 21.6,76.95 C21.6,76.2044157 22.2044157,75.6 22.95,75.6 L44.55,75.6 C45.2955843,75.6 45.9,76.2044157 45.9,76.95 C45.9,77.6955843 45.2955843,78.3 44.55,78.3 Z M42.47235,72.9 L25.02765,72.9 L27.4266,67.5 L40.0734,67.5 L42.47235,72.9 Z M62.1,64.8 L35.1,64.8 L35.1,63.45 C35.1,62.7044157 34.4955843,62.1 33.75,62.1 C33.0044157,62.1 32.4,62.7044157 32.4,63.45 L32.4,64.8 L5.4,64.8 C3.90883117,64.8 2.7,63.5911688 2.7,62.1 L2.7,58.05 L64.8,58.05 L64.8,62.1 C64.8,63.5911688 63.5911688,64.8 62.1,64.8 Z M64.8,55.35 L2.7,55.35 L2.7,21.6 C2.7,20.1088312 3.90883117,18.9 5.4,18.9 L35.1,18.9 L35.1,48.6 C35.1,50.8367532 36.9132468,52.65 39.15,52.65 L64.8,52.65 L64.8,55.35 Z M76.95,49.95 L39.15,49.95 C38.4044157,49.95 37.8,49.3455843 37.8,48.6 L37.8,13.5 L78.3,13.5 L78.3,48.6 C78.3,49.3455843 77.6955843,49.95 76.95,49.95 Z" id="Shape"></path>
                <circle id="Oval" cx="41.85" cy="6.75" r="1.35"></circle>
                <circle id="Oval" cx="47.25" cy="6.75" r="1.35"></circle>
                <circle id="Oval" cx="52.65" cy="6.75" r="1.35"></circle>
                <path d="M75.53115,17.1234 C75.53115,17.10585 75.5109,17.0937 75.50415,17.0775 C75.4681493,16.9905424 75.4228882,16.907715 75.36915,16.83045 C75.3301111,16.7595859 75.2849384,16.6922786 75.23415,16.6293 C75.1739717,16.5741956 75.1094087,16.5240802 75.0411,16.47945 C74.9712487,16.4226043 74.8962202,16.3724347 74.817,16.3296 C74.7467183,16.3036743 74.6744921,16.2833607 74.601,16.26885 C74.5054868,16.2381383 74.4067212,16.2186571 74.3067,16.2108 C74.28915,16.2108 74.2743,16.2 74.25675,16.2 L41.85,16.2 C41.83245,16.2 41.8176,16.20945 41.80005,16.2108 C41.7000288,16.2186571 41.6012632,16.2381383 41.50575,16.26885 C41.4322579,16.2833607 41.3600317,16.3036743 41.28975,16.3296 C41.2105298,16.3724347 41.1355013,16.4226043 41.06565,16.47945 C40.9973413,16.5240802 40.9327783,16.5741956 40.8726,16.6293 C40.8218117,16.6922786 40.7766389,16.7595859 40.7376,16.83045 C40.6838618,16.907715 40.6386007,16.9905424 40.6026,17.0775 C40.59585,17.0937 40.58235,17.10585 40.5756,17.1234 C40.5612102,17.1946233 40.5521849,17.266826 40.5486,17.3394 C40.526934,17.4082256 40.5106844,17.4786402 40.5,17.55 L40.5,28.35 C40.5084742,28.4211779 40.5224663,28.4915899 40.54185,28.5606 C40.5454349,28.633174 40.5544602,28.7053767 40.56885,28.7766 C40.5756,28.79685 40.5891,28.8117 40.5972,28.8306 C40.6189858,28.8771678 40.6437885,28.9222638 40.67145,28.9656 C40.7203043,29.0627626 40.7810723,29.153461 40.85235,29.2356 C40.8887846,29.276534 40.9280298,29.3148771 40.9698,29.35035 C41.051956,29.4216054 41.1426514,29.4823715 41.2398,29.53125 C41.2834547,29.5567476 41.3285278,29.579735 41.3748,29.6001 C41.5258599,29.6618482 41.6868638,29.6956957 41.85,29.7 L74.25,29.7 C74.4124307,29.6968224 74.5729542,29.6643518 74.72385,29.60415 C74.7701222,29.583785 74.8151953,29.5607976 74.85885,29.5353 C74.9559986,29.4864215 75.046694,29.4256554 75.12885,29.3544 C75.1706202,29.3189271 75.2098654,29.280584 75.2463,29.23965 C75.3175777,29.157511 75.3783457,29.0668126 75.4272,28.96965 C75.4548615,28.9263138 75.4796642,28.8812178 75.50145,28.83465 C75.50955,28.81575 75.52305,28.8009 75.5298,28.78065 C75.5441898,28.7094267 75.5532151,28.637224 75.5568,28.56465 C75.5768471,28.4943533 75.5912922,28.4225787 75.6,28.35 L75.6,17.55 C75.5915258,17.4788221 75.5775337,17.4084101 75.55815,17.3394 C75.5545651,17.266826 75.5455398,17.1946233 75.53115,17.1234 Z M43.2,19.42245 L53.78265,22.95 L43.2,26.47755 L43.2,19.42245 Z M50.16735,18.9 L65.93265,18.9 L58.05,21.5271 L50.16735,18.9 Z M58.05,24.3729 L65.93265,27 L50.16735,27 L58.05,24.3729 Z M62.31735,22.95 L72.9,19.42245 L72.9,26.47755 L62.31735,22.95 Z" id="Shape"></path>
                <path d="M41.85,35.1 L56.7,35.1 C57.4455843,35.1 58.05,34.4955843 58.05,33.75 C58.05,33.0044157 57.4455843,32.4 56.7,32.4 L41.85,32.4 C41.1044157,32.4 40.5,33.0044157 40.5,33.75 C40.5,34.4955843 41.1044157,35.1 41.85,35.1 Z" id="Shape"></path>
                <path d="M74.25,32.4 L62.1,32.4 C61.3544157,32.4 60.75,33.0044157 60.75,33.75 C60.75,34.4955843 61.3544157,35.1 62.1,35.1 L74.25,35.1 C74.9955843,35.1 75.6,34.4955843 75.6,33.75 C75.6,33.0044157 74.9955843,32.4 74.25,32.4 Z" id="Shape"></path>
                <path d="M74.25,37.8 L41.85,37.8 C41.1044157,37.8 40.5,38.4044157 40.5,39.15 C40.5,39.8955843 41.1044157,40.5 41.85,40.5 L74.25,40.5 C74.9955843,40.5 75.6,39.8955843 75.6,39.15 C75.6,38.4044157 74.9955843,37.8 74.25,37.8 Z" id="Shape"></path>
                <path d="M51.3,43.2 L41.85,43.2 C41.1044157,43.2 40.5,43.8044157 40.5,44.55 C40.5,45.2955843 41.1044157,45.9 41.85,45.9 L51.3,45.9 C52.0455843,45.9 52.65,45.2955843 52.65,44.55 C52.65,43.8044157 52.0455843,43.2 51.3,43.2 Z" id="Shape"></path>
                <path d="M74.25,43.2 L58.05,43.2 C57.3044157,43.2 56.7,43.8044157 56.7,44.55 C56.7,45.2955843 57.3044157,45.9 58.05,45.9 L74.25,45.9 C74.9955843,45.9 75.6,45.2955843 75.6,44.55 C75.6,43.8044157 74.9955843,43.2 74.25,43.2 Z" id="Shape"></path>
                <path d="M20.25,21.6 L8.1,21.6 C7.35441559,21.6 6.75,22.2044157 6.75,22.95 C6.75,23.6955843 7.35441559,24.3 8.1,24.3 L20.25,24.3 C20.9955843,24.3 21.6,23.6955843 21.6,22.95 C21.6,22.2044157 20.9955843,21.6 20.25,21.6 Z" id="Shape"></path>
                <path d="M28.35,21.6 L25.65,21.6 C24.9044157,21.6 24.3,22.2044157 24.3,22.95 C24.3,23.6955843 24.9044157,24.3 25.65,24.3 L28.35,24.3 C29.0955843,24.3 29.7,23.6955843 29.7,22.95 C29.7,22.2044157 29.0955843,21.6 28.35,21.6 Z" id="Shape"></path>
            </g>
        </g>
    </g>
</svg>