<?xml version="1.0" encoding="UTF-8"?>
<svg width="239px" height="41px" viewBox="0 0 239 41" version="1.1" xmlns="http://www.w3.org/2000/svg" xmlns:xlink="http://www.w3.org/1999/xlink">
    <!-- Generator: Sketch 55.2 (78181) - https://sketchapp.com -->
    <title>Group 40 Copy</title>
    <desc>Created with Sketch.</desc>
    <defs>
        <linearGradient x1="27.9436471%" y1="89.0647978%" x2="76.0299167%" y2="0%" id="linearGradient-1">
            <stop stop-color="#11715D" offset="0%"></stop>
            <stop stop-color="#42B55E" offset="100%"></stop>
        </linearGradient>
    </defs>
    <g id="Landing-page" stroke="none" stroke-width="1" fill="none" fill-rule="evenodd">
        <g id="Landing-v2" transform="translate(-91.000000, -87.000000)">
            <g id="Group-40-Copy" transform="translate(81.000000, 77.000000)">
                <path d="M62.832,39.688 C62.832,40.0506685 62.7093346,40.3599987 62.464,40.616 C62.2186654,40.8720013 61.9146685,41 61.552,41 C61.1679981,41 60.8586678,40.8720013 60.624,40.616 C60.3893322,40.3599987 60.272,40.0506685 60.272,39.688 L60.272,25.48 C60.272,25.1173315 60.3946654,24.8133346 60.64,24.568 C60.8853346,24.3226654 61.1893315,24.2 61.552,24.2 C61.9146685,24.2 62.2186654,24.3226654 62.464,24.568 C62.7093346,24.8133346 62.832,25.1173315 62.832,25.48 L62.832,39.688 Z M61.52,22.056 C60.986664,22.056 60.5920013,21.9493344 60.336,21.736 C60.0799987,21.5226656 59.952,21.1920022 59.952,20.744 L59.952,20.296 C59.952,19.8479978 60.0906653,19.5173344 60.368,19.304 C60.6453347,19.0906656 61.0399974,18.984 61.552,18.984 C62.0640026,18.984 62.4479987,19.0906656 62.704,19.304 C62.9600013,19.5173344 63.088,19.8479978 63.088,20.296 L63.088,20.744 C63.088,21.1920022 62.954668,21.5226656 62.688,21.736 C62.421332,21.9493344 62.0320026,22.056 61.52,22.056 Z M70,27.177745 C70.0309743,27.1292028 70.0629743,27.0806212 70.096,27.032 C70.4800019,26.4666638 70.9599971,25.9600022 71.536,25.512 C72.1120029,25.0639978 72.7519965,24.706668 73.456,24.44 C74.1600035,24.173332 74.8959962,24.04 75.664,24.04 C77.1146739,24.04 78.2559958,24.3386637 79.088,24.936 C79.9200042,25.5333363 80.5119982,26.3333283 80.864,27.336 C81.2160018,28.3386717 81.392,29.4586605 81.392,30.696 L81.392,39.688 C81.392,40.0506685 81.2693346,40.3599987 81.024,40.616 C80.7786654,40.8720013 80.4746685,41 80.112,41 C79.7493315,41 79.4453346,40.8720013 79.2,40.616 C78.9546654,40.3599987 78.832,40.0506685 78.832,39.688 L78.832,30.76 C78.832,29.9493293 78.7093346,29.2186699 78.464,28.568 C78.2186654,27.9173301 77.8133362,27.3946686 77.248,27 C76.6826638,26.6053314 75.9093382,26.408 74.928,26.408 C74.0319955,26.408 73.2106704,26.6053314 72.464,27 C71.7173296,27.3946686 71.1200022,27.9173301 70.672,28.568 C70.2239978,29.2186699 70,29.9493293 70,30.76 L70,39.688 C70,40.0506685 69.8773346,40.3599987 69.632,40.616 C69.3866654,40.8720013 69.0826685,41 68.72,41 C68.3573315,41 68.0533346,40.8720013 67.808,40.616 C67.5626654,40.3599987 67.44,40.0506685 67.44,39.688 L67.44,25.736 C67.44,25.3733315 67.5626654,25.0693346 67.808,24.824 C68.0533346,24.5786654 68.3573315,24.456 68.72,24.456 C69.1040019,24.456 69.4133322,24.5786654 69.648,24.824 C69.8826678,25.0693346 70,25.3733315 70,25.736 L70,27.177745 L70,27.177745 Z M85.488,24.552 L93.008,24.552 C93.349335,24.552 93.6319989,24.6693322 93.856,24.904 C94.0800011,25.1386678 94.192,25.4159984 94.192,25.736 C94.192,26.077335 94.0800011,26.3599989 93.856,26.584 C93.6319989,26.8080011 93.349335,26.92 93.008,26.92 L85.488,26.92 C85.1679984,26.92 84.8906678,26.8026678 84.656,26.568 C84.4213322,26.3333322 84.304,26.045335 84.304,25.704 C84.304,25.3839984 84.4213322,25.1120011 84.656,24.888 C84.8906678,24.6639989 85.1679984,24.552 85.488,24.552 Z M88.848,20.2 C89.2106685,20.2 89.5093322,20.3226654 89.744,20.568 C89.9786678,20.8133346 90.096,21.1173315 90.096,21.48 L90.096,36.936 C90.096,37.4480026 90.1706659,37.8319987 90.32,38.088 C90.4693341,38.3440013 90.6666654,38.5199995 90.912,38.616 C91.1573346,38.7120005 91.3973322,38.76 91.632,38.76 C91.8453344,38.76 92.0319992,38.722667 92.192,38.648 C92.3520008,38.573333 92.5386656,38.536 92.752,38.536 C92.9653344,38.536 93.1626658,38.6373323 93.344,38.84 C93.5253342,39.0426677 93.616,39.3039984 93.616,39.624 C93.616,40.0080019 93.3920022,40.333332 92.944,40.6 C92.4959978,40.866668 91.9946694,41 91.44,41 C91.1413318,41 90.7733355,40.9786669 90.336,40.936 C89.8986645,40.8933331 89.4666688,40.7546678 89.04,40.52 C88.6133312,40.2853322 88.2560014,39.8960027 87.968,39.352 C87.6799986,38.8079973 87.536,38.0453382 87.536,37.064 L87.536,21.48 C87.536,21.1173315 87.6639987,20.8133346 87.92,20.568 C88.1760013,20.3226654 88.4853315,20.2 88.848,20.2 Z M99.3111772,30.92 L109.376,30.92 L109.376,30.664 C109.312,29.789329 109.029336,29.0373365 108.528,28.408 C108.026664,27.7786635 107.413337,27.293335 106.688,26.952 C105.962663,26.610665 105.205337,26.44 104.416,26.44 C103.775997,26.44 103.141336,26.5519989 102.512,26.776 C101.882664,27.0000011 101.317336,27.3626642 100.816,27.864 C100.314664,28.3653358 99.9146682,29.0106627 99.616,29.8 C99.4861767,30.1431044 99.3845692,30.516437 99.3111772,30.92 L99.3111772,30.92 Z M99.1809826,33.128 C99.238199,34.1686711 99.4845364,35.096664 99.92,35.912 C100.421336,36.8506714 101.119996,37.5919973 102.016,38.136 C102.912004,38.6800027 103.946661,38.952 105.12,38.952 C105.888004,38.952 106.549331,38.856001 107.104,38.664 C107.658669,38.471999 108.133331,38.2320014 108.528,37.944 C108.922669,37.6559986 109.258665,37.3626682 109.536,37.064 C109.813335,36.871999 110.090665,36.776 110.368,36.776 C110.666668,36.776 110.922666,36.8826656 111.136,37.096 C111.349334,37.3093344 111.456,37.5653318 111.456,37.864 C111.456,38.2266685 111.285335,38.5466653 110.944,38.824 C110.32533,39.4853366 109.509338,40.0666642 108.496,40.568 C107.482662,41.0693358 106.389339,41.32 105.216,41.32 C103.509325,41.32 102.016006,40.957337 100.736,40.232 C99.4559936,39.506663 98.4640035,38.5093397 97.76,37.24 C97.0559965,35.9706603 96.704,34.5040083 96.704,32.84 C96.704,30.9839907 97.0719963,29.4000066 97.808,28.088 C98.5440037,26.7759934 99.4986608,25.7733368 100.672,25.08 C101.845339,24.3866632 103.093327,24.04 104.416,24.04 C105.418672,24.04 106.373329,24.2213315 107.28,24.584 C108.186671,24.9466685 108.99733,25.4746632 109.712,26.168 C110.42667,26.8613368 110.997331,27.6933285 111.424,28.664 C111.850669,29.6346715 112.074667,30.7173274 112.096,31.912 C112.074667,32.253335 111.936001,32.5413322 111.68,32.776 C111.423999,33.0106678 111.125335,33.128 110.784,33.128 L99.1809826,33.128 L99.1809826,33.128 Z M118.336,28.0040275 C118.425455,27.7848101 118.526788,27.5674679 118.64,27.352 C118.970668,26.7226635 119.391997,26.1573358 119.904,25.656 C120.416003,25.1546642 121.002663,24.7600014 121.664,24.472 C122.325337,24.1839986 123.050663,24.04 123.84,24.04 C124.309336,24.04 124.741331,24.1519989 125.136,24.376 C125.530669,24.6000011 125.728,24.9146646 125.728,25.32 C125.728,25.7680022 125.610668,26.0986656 125.376,26.312 C125.141332,26.5253344 124.874668,26.632 124.576,26.632 C124.298665,26.632 124.032001,26.5733339 123.776,26.456 C123.519999,26.3386661 123.200002,26.28 122.816,26.28 C122.282664,26.28 121.754669,26.4239986 121.232,26.712 C120.709331,27.0000014 120.229336,27.410664 119.792,27.944 C119.354664,28.477336 119.002668,29.0799966 118.736,29.752 C118.469332,30.4240034 118.336,31.1439962 118.336,31.912 L118.336,39.688 C118.336,40.0506685 118.213335,40.3599987 117.968,40.616 C117.722665,40.8720013 117.418668,41 117.056,41 C116.693332,41 116.389335,40.8720013 116.144,40.616 C115.898665,40.3599987 115.776,40.0506685 115.776,39.688 L115.776,25.736 C115.776,25.3733315 115.898665,25.0693346 116.144,24.824 C116.389335,24.5786654 116.693332,24.456 117.056,24.456 C117.440002,24.456 117.749332,24.5786654 117.984,24.824 C118.218668,25.0693346 118.336,25.3733315 118.336,25.736 L118.336,28.0040275 L118.336,28.0040275 Z M135.52,17.384 C135.882668,17.384 136.261331,17.4266662 136.656,17.512 C137.050669,17.5973338 137.391999,17.7466656 137.68,17.96 C137.968001,18.1733344 138.112,18.4613315 138.112,18.824 C138.112,19.165335 138.005334,19.4479989 137.792,19.672 C137.578666,19.8960011 137.322668,20.008 137.024,20.008 C136.831999,20.008 136.565335,19.9493339 136.224,19.832 C135.882665,19.7146661 135.530668,19.656 135.168,19.656 C134.677331,19.656 134.277335,19.7626656 133.968,19.976 C133.658665,20.1893344 133.434667,20.4719982 133.296,20.824 C133.157333,21.1760018 133.088,21.5653312 133.088,21.992 L133.088,39.688 C133.088,40.0506685 132.965335,40.3599987 132.72,40.616 C132.474665,40.8720013 132.170668,41 131.808,41 C131.423998,41 131.114668,40.8720013 130.88,40.616 C130.645332,40.3599987 130.528,40.0506685 130.528,39.688 L130.528,22.024 C130.528,20.5946595 130.970662,19.4640042 131.856,18.632 C132.741338,17.7999958 133.962659,17.384 135.52,17.384 Z M136.416,24.712 C136.757335,24.712 137.045332,24.8239989 137.28,25.048 C137.514668,25.2720011 137.632,25.554665 137.632,25.896 C137.632,26.237335 137.514668,26.5199989 137.28,26.744 C137.045332,26.9680011 136.757335,27.08 136.416,27.08 L128.384,27.08 C128.042665,27.08 127.754668,26.9626678 127.52,26.728 C127.285332,26.4933322 127.168,26.2160016 127.168,25.896 C127.168,25.5333315 127.285332,25.2453344 127.52,25.032 C127.754668,24.8186656 128.042665,24.712 128.384,24.712 L136.416,24.712 Z M152.784,38.3301491 C152.478678,38.8058617 152.084014,39.2531419 151.6,39.672 C151.045331,40.1520024 150.39467,40.5466651 149.648,40.856 C148.90133,41.1653349 148.090671,41.32 147.216,41.32 C145.765326,41.32 144.458672,40.9413371 143.296,40.184 C142.133328,39.4266629 141.221337,38.3973398 140.56,37.096 C139.898663,35.7946602 139.568,34.3120083 139.568,32.648 C139.568,30.9626582 139.903997,29.4746731 140.576,28.184 C141.248003,26.8933269 142.154661,25.8800037 143.296,25.144 C144.437339,24.4079963 145.72266,24.04 147.152,24.04 C148.069338,24.04 148.922663,24.1893318 149.712,24.488 C150.501337,24.7866682 151.18933,25.1919974 151.776,25.704 C152.173085,26.0505466 152.509083,26.4215225 152.784,26.8169329 L152.784,25.576 C152.784,25.2133315 152.906665,24.9093346 153.152,24.664 C153.397335,24.4186654 153.701332,24.296 154.064,24.296 C154.448002,24.296 154.757332,24.4186654 154.992,24.664 C155.226668,24.9093346 155.344,25.2133315 155.344,25.576 L155.344,39.688 C155.344,40.0506685 155.221335,40.3599987 154.976,40.616 C154.730665,40.8720013 154.426668,41 154.064,41 C153.701332,41 153.397335,40.8720013 153.152,40.616 C152.906665,40.3599987 152.784,40.0506685 152.784,39.688 L152.784,38.3301491 L152.784,38.3301491 Z M147.472,38.952 C148.538672,38.952 149.482663,38.6746694 150.304,38.12 C151.125337,37.5653306 151.770664,36.8133381 152.24,35.864 C152.709336,34.9146619 152.944,33.8426726 152.944,32.648 C152.944,31.4746608 152.709336,30.4133381 152.24,29.464 C151.770664,28.5146619 151.125337,27.7680027 150.304,27.224 C149.482663,26.6799973 148.538672,26.408 147.472,26.408 C146.426661,26.408 145.493337,26.674664 144.672,27.208 C143.850663,27.741336 143.205336,28.4773286 142.736,29.416 C142.266664,30.3546714 142.032,31.4319939 142.032,32.648 C142.032,33.8426726 142.266664,34.9146619 142.736,35.864 C143.205336,36.8133381 143.850663,37.5653306 144.672,38.12 C145.493337,38.6746694 146.426661,38.952 147.472,38.952 Z M167.28,24.04 C168.368005,24.04 169.349329,24.1573322 170.224,24.392 C171.098671,24.6266678 171.791997,24.9466646 172.304,25.352 C172.816003,25.7573354 173.072,26.2159974 173.072,26.728 C173.072,27.0053347 172.981334,27.2719987 172.8,27.528 C172.618666,27.7840013 172.357335,27.912 172.016,27.912 C171.738665,27.912 171.509334,27.8586672 171.328,27.752 C171.146666,27.6453328 170.976001,27.5066675 170.816,27.336 C170.655999,27.1653325 170.437335,27.0160006 170.16,26.888 C169.903999,26.7386659 169.530669,26.6213338 169.04,26.536 C168.549331,26.4506662 168.048003,26.408 167.536,26.408 C166.383994,26.408 165.360004,26.6853306 164.464,27.24 C163.567996,27.7946694 162.869336,28.5413286 162.368,29.48 C161.866664,30.4186714 161.616,31.4853274 161.616,32.68 C161.616,33.8746726 161.861331,34.9413286 162.352,35.88 C162.842669,36.8186714 163.525329,37.5653306 164.4,38.12 C165.274671,38.6746694 166.287994,38.952 167.44,38.952 C168.18667,38.952 168.778664,38.8880006 169.216,38.76 C169.653336,38.6319994 170.031998,38.4826675 170.352,38.312 C170.714668,38.0986656 170.997332,37.8853344 171.2,37.672 C171.402668,37.4586656 171.685332,37.352 172.048,37.352 C172.410668,37.352 172.687999,37.4693322 172.88,37.704 C173.072001,37.9386678 173.168,38.226665 173.168,38.568 C173.168,38.9520019 172.901336,39.3573312 172.368,39.784 C171.834664,40.2106688 171.114671,40.5733318 170.208,40.872 C169.301329,41.1706682 168.282672,41.32 167.152,41.32 C165.530659,41.32 164.112006,40.9413371 162.896,40.184 C161.679994,39.4266629 160.736003,38.3920066 160.064,37.08 C159.391997,35.7679934 159.056,34.3013414 159.056,32.68 C159.056,31.0586586 159.402663,29.5973398 160.096,28.296 C160.789337,26.9946602 161.75466,25.9600038 162.992,25.192 C164.22934,24.4239962 165.658659,24.04 167.28,24.04 Z M178.111177,30.92 L188.176,30.92 L188.176,30.664 C188.112,29.789329 187.829336,29.0373365 187.328,28.408 C186.826664,27.7786635 186.213337,27.293335 185.488,26.952 C184.762663,26.610665 184.005337,26.44 183.216,26.44 C182.575997,26.44 181.941336,26.5519989 181.312,26.776 C180.682664,27.0000011 180.117336,27.3626642 179.616,27.864 C179.114664,28.3653358 178.714668,29.0106627 178.416,29.8 C178.286177,30.1431044 178.184569,30.516437 178.111177,30.92 L178.111177,30.92 Z M177.980983,33.128 C178.038199,34.1686711 178.284536,35.096664 178.72,35.912 C179.221336,36.8506714 179.919996,37.5919973 180.816,38.136 C181.712004,38.6800027 182.746661,38.952 183.92,38.952 C184.688004,38.952 185.349331,38.856001 185.904,38.664 C186.458669,38.471999 186.933331,38.2320014 187.328,37.944 C187.722669,37.6559986 188.058665,37.3626682 188.336,37.064 C188.613335,36.871999 188.890665,36.776 189.168,36.776 C189.466668,36.776 189.722666,36.8826656 189.936,37.096 C190.149334,37.3093344 190.256,37.5653318 190.256,37.864 C190.256,38.2266685 190.085335,38.5466653 189.744,38.824 C189.12533,39.4853366 188.309338,40.0666642 187.296,40.568 C186.282662,41.0693358 185.189339,41.32 184.016,41.32 C182.309325,41.32 180.816006,40.957337 179.536,40.232 C178.255994,39.506663 177.264004,38.5093397 176.56,37.24 C175.855996,35.9706603 175.504,34.5040083 175.504,32.84 C175.504,30.9839907 175.871996,29.4000066 176.608,28.088 C177.344004,26.7759934 178.298661,25.7733368 179.472,25.08 C180.645339,24.3866632 181.893327,24.04 183.216,24.04 C184.218672,24.04 185.173329,24.2213315 186.08,24.584 C186.986671,24.9466685 187.79733,25.4746632 188.512,26.168 C189.22667,26.8613368 189.797331,27.6933285 190.224,28.664 C190.650669,29.6346715 190.874667,30.7173274 190.896,31.912 C190.874667,32.253335 190.736001,32.5413322 190.48,32.776 C190.223999,33.0106678 189.925335,33.128 189.584,33.128 L177.980983,33.128 L177.980983,33.128 Z M193.648,38.376 C193.455999,38.0986653 193.370667,37.8053349 193.392,37.496 C193.413333,37.1866651 193.594665,36.9146678 193.936,36.68 C194.149334,36.5306659 194.399999,36.4666666 194.688,36.488 C194.976001,36.5093334 195.237332,36.6479987 195.472,36.904 C196.069336,37.6080035 196.751996,38.1679979 197.52,38.584 C198.288004,39.0000021 199.226661,39.208 200.336,39.208 C200.848003,39.1866666 201.359997,39.1013341 201.872,38.952 C202.384003,38.8026659 202.815998,38.5413352 203.168,38.168 C203.520002,37.7946648 203.696,37.2986698 203.696,36.68 C203.696,36.0826637 203.514668,35.6080018 203.152,35.256 C202.789332,34.9039982 202.320003,34.6160011 201.744,34.392 C201.167997,34.1679989 200.53867,33.9706675 199.856,33.8 C199.151996,33.607999 198.45867,33.3893346 197.776,33.144 C197.09333,32.8986654 196.480003,32.5893352 195.936,32.216 C195.391997,31.8426648 194.954668,31.3733362 194.624,30.808 C194.293332,30.2426638 194.128,29.5546707 194.128,28.744 C194.128,27.7839952 194.389331,26.9520035 194.912,26.248 C195.434669,25.5439965 196.138662,25.0000019 197.024,24.616 C197.909338,24.2319981 198.874661,24.04 199.92,24.04 C200.517336,24.04 201.14133,24.1093326 201.792,24.248 C202.44267,24.3866674 203.07733,24.6213317 203.696,24.952 C204.31467,25.2826683 204.858664,25.7359971 205.328,26.312 C205.520001,26.5253344 205.626667,26.7919984 205.648,27.112 C205.669333,27.4320016 205.530668,27.7199987 205.232,27.976 C204.997332,28.1466675 204.736001,28.2213334 204.448,28.2 C204.159999,28.1786666 203.920001,28.072001 203.728,27.88 C203.279998,27.346664 202.720003,26.9360014 202.048,26.648 C201.375997,26.3599986 200.634671,26.216 199.824,26.216 C199.311997,26.216 198.810669,26.2906659 198.32,26.44 C197.829331,26.5893341 197.418668,26.8399982 197.088,27.192 C196.757332,27.5440018 196.592,28.0293302 196.592,28.648 C196.613333,29.2240029 196.805332,29.6933315 197.168,30.056 C197.530668,30.4186685 198.02133,30.7119989 198.64,30.936 C199.25867,31.1600011 199.94133,31.3786656 200.688,31.592 C201.37067,31.7626675 202.026664,31.9599989 202.656,32.184 C203.285336,32.4080011 203.855997,32.7013315 204.368,33.064 C204.880003,33.4266685 205.285332,33.8906638 205.584,34.456 C205.882668,35.0213362 206.032,35.7306624 206.032,36.584 C206.032,37.5653382 205.754669,38.4133298 205.2,39.128 C204.645331,39.8426702 203.914671,40.3866648 203.008,40.76 C202.101329,41.1333352 201.125339,41.32 200.08,41.32 C198.906661,41.32 197.749339,41.0960022 196.608,40.648 C195.466661,40.1999978 194.480004,39.442672 193.648,38.376 Z M210.496,40.968 C210.047998,40.968 209.701335,40.8400013 209.456,40.584 C209.210665,40.3279987 209.088,39.9760022 209.088,39.528 L209.088,38.888 C209.088,38.4186643 209.210665,38.0560013 209.456,37.8 C209.701335,37.5439987 210.047998,37.416 210.496,37.416 L210.752,37.416 C211.221336,37.416 211.573332,37.5439987 211.808,37.8 C212.042668,38.0560013 212.16,38.4186643 212.16,38.888 L212.16,39.528 C212.16,39.9760022 212.042668,40.3279987 211.808,40.584 C211.573332,40.8400013 211.221336,40.968 210.752,40.968 L210.496,40.968 Z M223.44,24.04 C224.528005,24.04 225.509329,24.1573322 226.384,24.392 C227.258671,24.6266678 227.951997,24.9466646 228.464,25.352 C228.976003,25.7573354 229.232,26.2159974 229.232,26.728 C229.232,27.0053347 229.141334,27.2719987 228.96,27.528 C228.778666,27.7840013 228.517335,27.912 228.176,27.912 C227.898665,27.912 227.669334,27.8586672 227.488,27.752 C227.306666,27.6453328 227.136001,27.5066675 226.976,27.336 C226.815999,27.1653325 226.597335,27.0160006 226.32,26.888 C226.063999,26.7386659 225.690669,26.6213338 225.2,26.536 C224.709331,26.4506662 224.208003,26.408 223.696,26.408 C222.543994,26.408 221.520004,26.6853306 220.624,27.24 C219.727996,27.7946694 219.029336,28.5413286 218.528,29.48 C218.026664,30.4186714 217.776,31.4853274 217.776,32.68 C217.776,33.8746726 218.021331,34.9413286 218.512,35.88 C219.002669,36.8186714 219.685329,37.5653306 220.56,38.12 C221.434671,38.6746694 222.447994,38.952 223.6,38.952 C224.34667,38.952 224.938664,38.8880006 225.376,38.76 C225.813336,38.6319994 226.191998,38.4826675 226.512,38.312 C226.874668,38.0986656 227.157332,37.8853344 227.36,37.672 C227.562668,37.4586656 227.845332,37.352 228.208,37.352 C228.570668,37.352 228.847999,37.4693322 229.04,37.704 C229.232001,37.9386678 229.328,38.226665 229.328,38.568 C229.328,38.9520019 229.061336,39.3573312 228.528,39.784 C227.994664,40.2106688 227.274671,40.5733318 226.368,40.872 C225.461329,41.1706682 224.442672,41.32 223.312,41.32 C221.690659,41.32 220.272006,40.9413371 219.056,40.184 C217.839994,39.4266629 216.896003,38.3920066 216.224,37.08 C215.551997,35.7679934 215.216,34.3013414 215.216,32.68 C215.216,31.0586586 215.562663,29.5973398 216.256,28.296 C216.949337,26.9946602 217.91466,25.9600038 219.152,25.192 C220.38934,24.4239962 221.818659,24.04 223.44,24.04 Z M248.24,32.68 C248.24,34.3440083 247.877337,35.8266602 247.152,37.128 C246.426663,38.4293398 245.440006,39.4533296 244.192,40.2 C242.943994,40.9466704 241.530675,41.32 239.952,41.32 C238.394659,41.32 236.992006,40.9466704 235.744,40.2 C234.495994,39.4533296 233.504004,38.4293398 232.768,37.128 C232.031996,35.8266602 231.664,34.3440083 231.664,32.68 C231.664,31.0159917 232.031996,29.5333398 232.768,28.232 C233.504004,26.9306602 234.495994,25.9066704 235.744,25.16 C236.992006,24.4133296 238.394659,24.04 239.952,24.04 C241.530675,24.04 242.943994,24.4133296 244.192,25.16 C245.440006,25.9066704 246.426663,26.9306602 247.152,28.232 C247.877337,29.5333398 248.24,31.0159917 248.24,32.68 Z M245.68,32.68 C245.68,31.4426605 245.429336,30.3546714 244.928,29.416 C244.426664,28.4773286 243.744004,27.741336 242.88,27.208 C242.015996,26.674664 241.040005,26.408 239.952,26.408 C238.885328,26.408 237.914671,26.674664 237.04,27.208 C236.165329,27.741336 235.477336,28.4773286 234.976,29.416 C234.474664,30.3546714 234.224,31.4426605 234.224,32.68 C234.224,33.8960061 234.474664,34.9733286 234.976,35.912 C235.477336,36.8506714 236.165329,37.5919973 237.04,38.136 C237.914671,38.6800027 238.885328,38.952 239.952,38.952 C241.040005,38.952 242.015996,38.6800027 242.88,38.136 C243.744004,37.5919973 244.426664,36.8506714 244.928,35.912 C245.429336,34.9733286 245.68,33.8960061 245.68,32.68 Z" id="interfaces.co" fill="#FFFFFF" fill-rule="nonzero"></path>
                <path d="M39.5213367,38.6871209 L41.9287258,45.2562607 C42.2365848,46.0963281 41.8051447,47.0269064 40.9650773,47.3347654 C40.9628471,47.3355827 40.9606151,47.3363951 40.9583812,47.3372026 L20.0144128,54.9081971 C19.1756152,55.2114124 18.2495061,54.7795672 17.9426042,53.9421115 L8.09600025,27.0732856 C7.78814121,26.2332182 8.21958132,25.30264 9.05964871,24.994781 C9.06187894,24.9939637 9.06411097,24.9931513 9.06634477,24.9923438 L16.4786633,22.3128791 L14.0712742,15.7437393 C13.7634152,14.9036719 14.1948553,13.9730936 15.0349227,13.6652346 C15.0371529,13.6644173 15.0393849,13.6636049 15.0416188,13.6627974 L35.9855872,6.09180286 C36.8243848,5.78858756 37.7504939,6.22043284 38.0573958,7.05788854 L47.9039998,33.9267144 C48.2118588,34.7667818 47.7804187,35.69736 46.9403513,36.005219 C46.9381211,36.0060363 46.935889,36.0068487 46.9336552,36.0076562 L39.5213367,38.6871209 Z M39.5213367,38.6871209 L32.0821219,18.3874349 C31.7752199,17.5499792 30.8491108,17.1181339 30.0103133,17.4213492 L16.4786633,22.3128791 L23.9178781,42.6125651 C24.2247801,43.4500208 25.1508892,43.8818661 25.9896867,43.5786508 L39.5213367,38.6871209 Z" id="Combined-Shape" fill="url(#linearGradient-1)" opacity="0.949999988" transform="translate(28.000000, 30.500000) rotate(20.000000) translate(-28.000000, -30.500000) "></path>
            </g>
        </g>
    </g>
</svg>