<?xml version="1.0" encoding="UTF-8"?>
<svg width="74px" height="74px" viewBox="0 0 74 74" version="1.1" xmlns="http://www.w3.org/2000/svg" xmlns:xlink="http://www.w3.org/1999/xlink">
    <!-- Generator: Sketch 55.2 (78181) - https://sketchapp.com -->
    <title>Landing Page</title>
    <desc>Created with Sketch.</desc>
    <g id="Page-1" stroke="none" stroke-width="1" fill="none" fill-rule="evenodd">
        <g id="Interfaces-v1.1" transform="translate(-959.000000, -1766.000000)" fill="#1A976F" fill-rule="nonzero">
            <g id="Landing-Page" transform="translate(959.000000, 1766.000000)">
                <path d="M70.3,0 L3.7,0 C1.65654642,0 0,1.65654642 0,3.7 L0,55.5 C0,57.5434535 1.65654642,59.2 3.7,59.2 L27.1333333,59.2 L27.1333333,64.1333333 C23.7292677,64.1374109 20.9707442,66.8959344 20.9666667,70.3 L20.9666667,72.7666667 C20.9666667,73.4478178 21.5188489,74 22.2,74 L51.8,74 C52.4811511,74 53.0333333,73.4478178 53.0333333,72.7666667 L53.0333333,70.3 C53.0292558,66.8959344 50.2707323,64.1374109 46.8666667,64.1333333 L46.8666667,59.2 L70.3,59.2 C72.3434535,59.2 74,57.5434535 74,55.5 L74,3.7 C74,1.65654642 72.3434535,0 70.3,0 Z M2.46666667,12.3333333 L71.5333333,12.3333333 L71.5333333,46.8666667 L2.46666667,46.8666667 L2.46666667,12.3333333 Z M3.7,2.46666667 L70.3,2.46666667 C70.9811511,2.46666667 71.5333333,3.01884881 71.5333333,3.7 L71.5333333,9.86666667 L2.46666667,9.86666667 L2.46666667,3.7 C2.46666667,3.01884881 3.01884881,2.46666667 3.7,2.46666667 Z M50.5666667,70.3 L50.5666667,71.5333333 L23.4333333,71.5333333 L23.4333333,70.3 C23.4333333,68.2565465 25.0898798,66.6 27.1333333,66.6 L46.8666667,66.6 C48.9101202,66.6 50.5666667,68.2565465 50.5666667,70.3 Z M44.4,64.1333333 L29.6,64.1333333 L29.6,59.2 L44.4,59.2 L44.4,64.1333333 Z M71.5333333,55.5 C71.5333333,56.1811511 70.9811511,56.7333333 70.3,56.7333333 L3.7,56.7333333 C3.01884881,56.7333333 2.46666667,56.1811511 2.46666667,55.5 L2.46666667,49.3333333 L71.5333333,49.3333333 L71.5333333,55.5 Z" id="Shape"></path>
                <path d="M34.5333333,54.2666667 L39.4666667,54.2666667 C40.1478178,54.2666667 40.7,53.7144845 40.7,53.0333333 C40.7,52.3521822 40.1478178,51.8 39.4666667,51.8 L34.5333333,51.8 C33.8521822,51.8 33.3,52.3521822 33.3,53.0333333 C33.3,53.7144845 33.8521822,54.2666667 34.5333333,54.2666667 Z" id="Shape"></path>
                <path d="M65.3666667,61.6666667 C60.6011436,61.672782 56.7394487,65.534477 56.7333333,70.3 L56.7333333,71.5333333 C56.7333333,72.8956357 57.8376976,74 59.2,74 L71.5333333,74 C72.8956357,74 74,72.8956357 74,71.5333333 L74,70.3 C73.9938846,65.534477 70.1321897,61.672782 65.3666667,61.6666667 Z M71.5333333,71.5333333 L59.2,71.5333333 L59.2,70.3 C59.2036979,67.370709 61.2640859,64.8467337 64.1333333,64.2566667 L64.1333333,66.6 C64.1333333,67.2811511 64.6855155,67.8333333 65.3666667,67.8333333 C66.0478178,67.8333333 66.6,67.2811511 66.6,66.6 L66.6,64.2566667 C69.4692474,64.8467337 71.5296354,67.370709 71.5333333,70.3 L71.5333333,71.5333333 Z" id="Shape"></path>
                <path d="M6.16666667,7.4 L8.63333333,7.4 C9.31448453,7.4 9.86666667,6.84781786 9.86666667,6.16666667 C9.86666667,5.48551548 9.31448453,4.93333333 8.63333333,4.93333333 L6.16666667,4.93333333 C5.48551548,4.93333333 4.93333333,5.48551548 4.93333333,6.16666667 C4.93333333,6.84781786 5.48551548,7.4 6.16666667,7.4 Z" id="Shape"></path>
                <path d="M13.5666667,7.4 L20.9666667,7.4 C21.6478178,7.4 22.2,6.84781786 22.2,6.16666667 C22.2,5.48551548 21.6478178,4.93333333 20.9666667,4.93333333 L13.5666667,4.93333333 C12.8855155,4.93333333 12.3333333,5.48551548 12.3333333,6.16666667 C12.3333333,6.84781786 12.8855155,7.4 13.5666667,7.4 Z" id="Shape"></path>
                <path d="M64.1111333,15.8014667 C64.0971222,15.7594236 64.0806493,15.7182412 64.0618,15.6781333 C64.0392224,15.5993808 64.0082093,15.5232956 63.9693,15.4512 C63.9347717,15.3838498 63.8934456,15.3202074 63.8459667,15.2612667 C63.7960882,15.1992605 63.7398724,15.1426313 63.6782333,15.0923 C63.6215567,15.0453343 63.5604211,15.0040265 63.4957,14.9689667 C63.4226842,14.9285729 63.3458412,14.8955222 63.2663,14.8703 C63.1938348,14.8486566 63.1195153,14.8337927 63.0443,14.8259 C62.9968468,14.813987 62.9486343,14.8053334 62.9,14.8 L11.1,14.8 C11.0551279,14.8065488 11.0106582,14.8156075 10.9668,14.8271333 C10.8864585,14.8345261 10.8071006,14.8502323 10.73,14.874 C10.6560781,14.8979251 10.5846272,14.9289008 10.5166333,14.9665 C10.379729,15.0395079 10.258928,15.1393365 10.1614333,15.2600333 C10.1113334,15.3206338 10.0671433,15.3858864 10.0294667,15.4549 C9.9909594,15.5266056 9.96035759,15.6022831 9.9382,15.6806 C9.91912794,15.7206107 9.90264948,15.7618069 9.88886667,15.8039333 C9.88551876,15.8449763 9.88551876,15.8862237 9.88886667,15.9272667 C9.87981216,15.9622556 9.87240402,15.99765 9.86666667,16.0333333 L9.86666667,25.9 C9.87257569,25.9381903 9.88039663,25.97606 9.8901,26.0134667 C9.88675209,26.0545097 9.88675209,26.095757 9.8901,26.1368 C9.90424126,26.1835555 9.92154792,26.2292946 9.9419,26.2737 C9.96105246,26.3355375 9.9841213,26.3960932 10.0109667,26.455 C10.0520777,26.5330145 10.1017145,26.6062287 10.1589667,26.6733 C10.1966066,26.7219449 10.2378328,26.7677059 10.2823,26.8102 C10.354235,26.871455 10.4328418,26.9244112 10.5166333,26.9680667 C10.561947,26.9974251 10.608889,27.0241902 10.6572333,27.0482333 C10.7982436,27.1038955 10.9484024,27.1327561 11.1,27.1333333 L62.9,27.1333333 C63.0535737,27.131804 63.205474,27.1012566 63.3477,27.0433 C63.3960443,27.0192569 63.4429863,26.9924917 63.4883,26.9631333 C63.5720916,26.9194779 63.6506983,26.8665216 63.7226333,26.8052667 C63.7671006,26.7627725 63.8083267,26.7170116 63.8459667,26.6683667 C63.9032189,26.6012954 63.9528556,26.5280812 63.9939667,26.4500667 C64.020812,26.3911598 64.0438809,26.3306042 64.0630333,26.2687667 C64.0833854,26.2243612 64.1006921,26.1786222 64.1148333,26.1318667 C64.1181812,26.0908237 64.1181812,26.0495763 64.1148333,26.0085333 C64.1227209,25.97267 64.1288944,25.9364512 64.1333333,25.9 L64.1333333,16.0333333 C64.1274243,15.995143 64.1196034,15.9572733 64.1099,15.9198667 C64.1133956,15.8804924 64.1138081,15.8409052 64.1111333,15.8014667 Z M12.3333333,17.5244333 L30.4078333,20.9666667 L12.3333333,24.4089 L12.3333333,17.5244333 Z M24.1733333,17.2666667 L49.839,17.2666667 L37,19.7111333 L24.1733333,17.2666667 Z M37,22.2222 L49.8328333,24.6666667 L24.1733333,24.6666667 L37,22.2222 Z M43.5921667,20.9666667 L61.6666667,17.5244333 L61.6666667,24.4089 L43.5921667,20.9666667 Z" id="Shape"></path>
                <path d="M23.4333333,30.8333333 L11.1,30.8333333 C10.4188488,30.8333333 9.86666667,31.3855155 9.86666667,32.0666667 C9.86666667,32.7478178 10.4188488,33.3 11.1,33.3 L23.4333333,33.3 C24.1144845,33.3 24.6666667,32.7478178 24.6666667,32.0666667 C24.6666667,31.3855155 24.1144845,30.8333333 23.4333333,30.8333333 Z" id="Shape"></path>
                <path d="M23.4333333,35.7666667 L11.1,35.7666667 C10.4188488,35.7666667 9.86666667,36.3188489 9.86666667,37 C9.86666667,37.6811511 10.4188488,38.2333333 11.1,38.2333333 L23.4333333,38.2333333 C24.1144845,38.2333333 24.6666667,37.6811511 24.6666667,37 C24.6666667,36.3188489 24.1144845,35.7666667 23.4333333,35.7666667 Z" id="Shape"></path>
                <path d="M23.4333333,40.7 L11.1,40.7 C10.4188488,40.7 9.86666667,41.2521822 9.86666667,41.9333333 C9.86666667,42.6144845 10.4188488,43.1666667 11.1,43.1666667 L23.4333333,43.1666667 C24.1144845,43.1666667 24.6666667,42.6144845 24.6666667,41.9333333 C24.6666667,41.2521822 24.1144845,40.7 23.4333333,40.7 Z" id="Shape"></path>
                <path d="M43.1666667,30.8333333 L30.8333333,30.8333333 C30.1521822,30.8333333 29.6,31.3855155 29.6,32.0666667 C29.6,32.7478178 30.1521822,33.3 30.8333333,33.3 L43.1666667,33.3 C43.8478178,33.3 44.4,32.7478178 44.4,32.0666667 C44.4,31.3855155 43.8478178,30.8333333 43.1666667,30.8333333 Z" id="Shape"></path>
                <path d="M43.1666667,35.7666667 L30.8333333,35.7666667 C30.1521822,35.7666667 29.6,36.3188489 29.6,37 C29.6,37.6811511 30.1521822,38.2333333 30.8333333,38.2333333 L43.1666667,38.2333333 C43.8478178,38.2333333 44.4,37.6811511 44.4,37 C44.4,36.3188489 43.8478178,35.7666667 43.1666667,35.7666667 Z" id="Shape"></path>
                <path d="M43.1666667,40.7 L30.8333333,40.7 C30.1521822,40.7 29.6,41.2521822 29.6,41.9333333 C29.6,42.6144845 30.1521822,43.1666667 30.8333333,43.1666667 L43.1666667,43.1666667 C43.8478178,43.1666667 44.4,42.6144845 44.4,41.9333333 C44.4,41.2521822 43.8478178,40.7 43.1666667,40.7 Z" id="Shape"></path>
                <path d="M62.9,30.8333333 L50.5666667,30.8333333 C49.8855155,30.8333333 49.3333333,31.3855155 49.3333333,32.0666667 C49.3333333,32.7478178 49.8855155,33.3 50.5666667,33.3 L62.9,33.3 C63.5811511,33.3 64.1333333,32.7478178 64.1333333,32.0666667 C64.1333333,31.3855155 63.5811511,30.8333333 62.9,30.8333333 Z" id="Shape"></path>
                <path d="M62.9,35.7666667 L50.5666667,35.7666667 C49.8855155,35.7666667 49.3333333,36.3188489 49.3333333,37 C49.3333333,37.6811511 49.8855155,38.2333333 50.5666667,38.2333333 L62.9,38.2333333 C63.5811511,38.2333333 64.1333333,37.6811511 64.1333333,37 C64.1333333,36.3188489 63.5811511,35.7666667 62.9,35.7666667 Z" id="Shape"></path>
                <path d="M62.9,40.7 L50.5666667,40.7 C49.8855155,40.7 49.3333333,41.2521822 49.3333333,41.9333333 C49.3333333,42.6144845 49.8855155,43.1666667 50.5666667,43.1666667 L62.9,43.1666667 C63.5811511,43.1666667 64.1333333,42.6144845 64.1333333,41.9333333 C64.1333333,41.2521822 63.5811511,40.7 62.9,40.7 Z" id="Shape"></path>
            </g>
        </g>
    </g>
</svg>